<svg width="40" height="40" viewBox="0 0 40 40" fill="none" xmlns="http://www.w3.org/2000/svg">
<circle cx="20" cy="20" r="19" stroke="#1F78C7" stroke-width="2"/>
<path d="M26.7987 10.1451C25.4769 9.37314 23.9387 9.16511 22.4675 9.55932L20.5993 10.0599L21.4419 8.56635C21.5859 8.31108 21.4969 7.98539 21.2432 7.83888C20.9894 7.69238 20.6669 7.78052 20.5229 8.03576L19.5705 9.72399C19.145 10.4781 19.403 11.4543 20.1454 11.8999L21.7897 12.8869C21.9174 12.9635 22.0637 12.9799 22.1963 12.9444C22.3248 12.91 22.4403 12.8268 22.5133 12.7025C22.6616 12.4497 22.5781 12.1226 22.3268 11.9718L20.8633 11.0933L22.7435 10.5895C25.2182 9.92641 27.7763 11.4203 28.446 13.9197C28.6559 14.7033 28.6618 15.5292 28.463 16.3081C28.3904 16.5928 28.5605 16.8841 28.8431 16.9588C28.9348 16.983 29.027 16.9815 29.1123 16.9586C29.2899 16.9111 29.4373 16.7709 29.4864 16.5786C29.7306 15.6217 29.7236 14.6078 29.4659 13.6464C29.0678 12.1605 28.1206 10.917 26.7987 10.1451Z" fill="#1F78C7" stroke="#1F78C7" stroke-width="0.4"/>
<path d="M12.2013 29.8549C13.5231 30.6269 15.0613 30.8349 16.5325 30.4407L18.4007 29.9401L17.5581 31.4337C17.4141 31.6889 17.5031 32.0146 17.7568 32.1611C18.0106 32.3076 18.3331 32.2195 18.4771 31.9642L19.4295 30.276C19.855 29.5219 19.597 28.5457 18.8546 28.1001L17.2103 27.1131C17.0826 27.0365 16.9363 27.0201 16.8037 27.0556C16.6752 27.09 16.5597 27.1732 16.4867 27.2975C16.3384 27.5503 16.4219 27.8774 16.6732 28.0282L18.1367 28.9067L16.2565 29.4105C13.7818 30.0736 11.2237 28.5797 10.554 26.0803C10.3441 25.2967 10.3382 24.4708 10.537 23.6919C10.6096 23.4072 10.4395 23.1159 10.1568 23.0412C10.0652 23.017 9.97298 23.0185 9.88771 23.0414C9.71008 23.0889 9.56268 23.2291 9.51359 23.4214C9.26937 24.3783 9.27644 25.3922 9.53405 26.3536C9.9322 27.8395 10.8794 29.083 12.2013 29.8549Z" fill="#1F78C7" stroke="#1F78C7" stroke-width="0.4"/>
<path d="M16.2128 18.9185L18.2246 15.927V15H13.3603V16.25H16.4531L14.6064 19.0449V20H15.5673C16.4831 20 17.0236 20.3792 17.0236 21.4607V22.0646C17.0236 23.1882 16.6182 23.6798 15.7174 23.6798C14.9667 23.6798 14.5013 23.2865 14.4413 22.191H13C13.045 24.0309 14.096 25 15.7474 25C17.549 25 18.4799 23.9888 18.4799 22.0787V21.4326C18.4799 20.0562 17.7142 18.9888 16.2128 18.9185Z" fill="#1F78C7"/>
<path d="M20.1448 24.8455H22.7721C24.7989 24.8455 26 23.7079 26 21.7556V18.0758C26 16.1376 24.7989 15.014 22.7571 15.014H20.1448V24.8455ZM21.6612 23.4972V16.3624H22.7721C23.8681 16.3624 24.4686 16.9522 24.4686 18.1039V21.7275C24.4686 22.8933 23.8531 23.4972 22.7721 23.4972H21.6612Z" fill="#1F78C7"/>
<path d="M16.2128 18.9185L18.2246 15.927V15H13.3603V16.25H16.4531L14.6064 19.0449V20H15.5673C16.4831 20 17.0236 20.3792 17.0236 21.4607V22.0646C17.0236 23.1882 16.6182 23.6798 15.7174 23.6798C14.9667 23.6798 14.5013 23.2865 14.4413 22.191H13C13.045 24.0309 14.096 25 15.7474 25C17.549 25 18.4799 23.9888 18.4799 22.0787V21.4326C18.4799 20.0562 17.7142 18.9888 16.2128 18.9185Z" stroke="#1F78C7" stroke-width="0.4"/>
<path d="M20.1448 24.8455H22.7721C24.7989 24.8455 26 23.7079 26 21.7556V18.0758C26 16.1376 24.7989 15.014 22.7571 15.014H20.1448V24.8455ZM21.6612 23.4972V16.3624H22.7721C23.8681 16.3624 24.4686 16.9522 24.4686 18.1039V21.7275C24.4686 22.8933 23.8531 23.4972 22.7721 23.4972H21.6612Z" stroke="#1F78C7" stroke-width="0.4"/>
</svg>
