<svg width="5" height="9" viewBox="0 0 5 9" fill="none" xmlns="http://www.w3.org/2000/svg">
<path d="M4.86424 4.14882L1.07685 0.143779C0.989247 0.0510728 0.872312 0 0.747627 0C0.622941 0 0.506006 0.0510728 0.418408 0.143779L0.139492 0.438655C-0.0419999 0.6308 -0.0419999 0.94309 0.139492 1.13494L3.31986 4.49813L0.135964 7.86506C0.0483657 7.95776 0 8.08135 0 8.21313C0 8.34505 0.0483657 8.46864 0.135964 8.56142L0.414879 8.85622C0.502546 8.94893 0.619413 9 0.744098 9C0.868783 9 0.985719 8.94893 1.07332 8.85622L4.86424 4.84752C4.95205 4.75452 5.00028 4.63035 5 4.49835C5.00028 4.36584 4.95205 4.24175 4.86424 4.14882Z" fill="black"/>
</svg>
