<svg width="9" height="15" viewBox="0 0 9 15" fill="none" xmlns="http://www.w3.org/2000/svg">
<path d="M0.426898 6.9147L7.10209 0.239632C7.25648 0.0851213 7.46257 0 7.68233 0C7.90208 0 8.10818 0.0851213 8.26257 0.239632L8.75415 0.731092C9.07402 1.05133 9.07402 1.57182 8.75415 1.89157L3.14883 7.49689L8.76037 13.1084C8.91476 13.2629 9 13.4689 9 13.6885C9 13.9084 8.91476 14.1144 8.76037 14.269L8.26879 14.7604C8.11428 14.9149 7.9083 15 7.68855 15C7.46879 15 7.2627 14.9149 7.10831 14.7604L0.426898 8.0792C0.272144 7.9242 0.187144 7.71725 0.187632 7.49726C0.187144 7.2764 0.272144 7.06958 0.426898 6.9147Z" fill="black"/>
</svg>
