<svg width="25" height="28" viewBox="0 0 25 28" fill="none" xmlns="http://www.w3.org/2000/svg">
<path d="M22.7253 20.8262L11.267 11.4512C11.0441 11.2694 10.716 11.3028 10.5342 11.5257C10.4585 11.6185 10.4171 11.7345 10.417 11.8543V27.4793C10.4167 27.709 10.567 27.9117 10.7868 27.9783C10.8357 27.993 10.8867 28.0004 10.9378 28.0002C11.112 28.0001 11.2746 27.9129 11.3711 27.7679L15.3837 21.7502H22.3962C22.6838 21.7498 22.9167 21.5164 22.9164 21.2287C22.9162 21.0727 22.8461 20.925 22.7253 20.8262Z" fill="#1F78C7"/>
<path d="M9.93784 6.20835C9.65019 6.20835 9.41699 5.97515 9.41699 5.6875V1.52085C9.41704 1.2332 9.65019 1 9.93784 1C10.2255 1 10.4587 1.2332 10.4587 1.52085V5.6875C10.4587 5.97515 10.2255 6.20835 9.93784 6.20835Z" fill="#C4C4C4" stroke="#C4C4C4" stroke-width="0.3"/>
<path d="M5.771 10.3747H1.60435C1.3167 10.3747 1.0835 10.1415 1.0835 9.85386C1.0835 9.56621 1.3167 9.33301 1.60435 9.33301H5.771C6.05864 9.33301 6.29184 9.56621 6.29184 9.85386C6.29184 10.1415 6.05864 10.3747 5.771 10.3747Z" fill="#C4C4C4" stroke="#C4C4C4" stroke-width="0.3"/>
<path d="M18.271 10.3747H14.1043C13.8167 10.3747 13.5835 10.1415 13.5835 9.85386C13.5835 9.56621 13.8167 9.33301 14.1043 9.33301H18.271C18.5586 9.33301 18.7918 9.56621 18.7918 9.85386C18.7918 10.1415 18.5586 10.3747 18.271 10.3747Z" fill="#C4C4C4" stroke="#C4C4C4" stroke-width="0.3"/>
<path d="M6.99148 7.42928C6.85325 7.42953 6.72058 7.37484 6.62273 7.27718L3.67587 4.33348C3.47133 4.12894 3.47133 3.7974 3.67587 3.59286C3.88041 3.38832 4.21195 3.38832 4.41649 3.59286L7.35921 6.53973C7.56287 6.74286 7.56326 7.07264 7.36013 7.27631C7.26219 7.3745 7.12913 7.42958 6.99046 7.42933H6.99148V7.42928Z" fill="#C4C4C4" stroke="#C4C4C4" stroke-width="0.3"/>
<path d="M4.04473 16.2678C3.75708 16.2684 3.52349 16.0355 3.52295 15.7479C3.52271 15.6092 3.57778 15.4762 3.67598 15.3782L6.62285 12.4313C6.82974 12.2315 7.15947 12.2373 7.35933 12.4441C7.55425 12.646 7.55425 12.966 7.35933 13.1678L4.4166 16.1157C4.31797 16.2141 4.18403 16.2689 4.04473 16.2678Z" fill="#C4C4C4" stroke="#C4C4C4" stroke-width="0.3"/>
<path d="M12.8831 7.42897C12.5955 7.42951 12.3619 7.1967 12.3613 6.90905C12.3611 6.77038 12.4162 6.63732 12.5144 6.53937L15.4581 3.5925C15.665 3.39265 15.9947 3.39841 16.1946 3.60529C16.3895 3.80715 16.3895 4.12712 16.1946 4.32892L13.2519 7.2758C13.1542 7.37385 13.0215 7.42897 12.8831 7.42897Z" fill="#C4C4C4" stroke="#C4C4C4" stroke-width="0.3"/>
</svg>
