<svg width="21" height="21" viewBox="0 0 21 21" fill="none" xmlns="http://www.w3.org/2000/svg">
<path d="M10.5007 0C4.70194 0 0.000976562 4.70111 0.000976562 10.4999C0.000976562 16.2985 4.70194 21 10.5007 21C16.2995 21 21.0008 16.2985 21.0008 10.4999C21.0008 4.70111 16.2995 0 10.5007 0ZM10.5009 3.68806L16.7144 7.5626H4.28747L10.5009 3.68806ZM16.7918 13.7497H16.7912C16.7912 14.3712 16.2875 14.8748 15.6662 14.8748H5.33573C4.71426 14.8748 4.21068 14.3711 4.21068 13.7497V7.80914C4.21068 7.74341 4.2174 7.6795 4.22832 7.61671L10.1649 11.3186C10.1722 11.3231 10.18 11.3262 10.1875 11.3304C10.1953 11.3347 10.2033 11.3389 10.2113 11.3429C10.2532 11.3645 10.2964 11.382 10.3406 11.3934C10.3451 11.3946 10.3497 11.3952 10.3542 11.3963C10.4027 11.4077 10.4517 11.4148 10.5007 11.4148H10.5011C10.5014 11.4148 10.5018 11.4148 10.5018 11.4148C10.5508 11.4148 10.5999 11.4079 10.6483 11.3963C10.6528 11.3951 10.6574 11.3946 10.6619 11.3934C10.706 11.382 10.7491 11.3645 10.7912 11.3429C10.7992 11.3389 10.8072 11.3347 10.815 11.3304C10.8225 11.3262 10.8303 11.3231 10.8376 11.3186L16.7742 7.61671C16.7851 7.6795 16.7918 7.74327 16.7918 7.80914V13.7497Z" fill="black"/>
</svg>
