<svg width="16" height="16" viewBox="0 0 16 16" fill="none" xmlns="http://www.w3.org/2000/svg">
<path d="M8.93164 9.57812V15.9995H14.2142C14.9007 15.9995 15.4575 15.443 15.4575 14.756V9.57812H8.93164Z" fill="black"/>
<path d="M7.06465 9.57812H0.541016V14.756C0.541016 15.443 1.098 15.9995 1.7845 15.9995H7.06465V9.57812V9.57812ZM2.23624 14.6946C1.97844 14.6946 1.76929 14.4854 1.76929 14.2277V11.6369C1.76929 11.3791 1.97848 11.17 2.23624 11.17C2.49399 11.17 2.70318 11.3792 2.70318 11.6369V14.2277C2.70318 14.4854 2.49403 14.6946 2.23624 14.6946Z" fill="black"/>
<path d="M14.6193 4.7094H12.2839C12.6063 4.55468 12.8767 4.39484 13.0402 4.2315C14.0021 3.26968 14.0021 1.70948 13.0402 0.747507C12.5586 0.266579 11.9281 0.0261537 11.2977 0.0261537C10.6671 0.0261537 10.0365 0.266579 9.55557 0.747507C9.15614 1.14706 8.77187 2.13326 8.45814 3.14951C8.31162 3.10929 8.1608 3.08113 8.00215 3.08113C7.84405 3.08113 7.69319 3.10933 7.54734 3.14923C7.23239 2.12381 6.8445 1.12421 6.44132 0.721314C5.96035 0.240385 5.33046 0 4.69931 0C4.06878 0 3.43826 0.240425 2.95729 0.721314C1.99536 1.68364 1.99536 3.24353 2.95729 4.20531C3.12938 4.37814 3.41932 4.54716 3.76719 4.7094H1.37953C0.692995 4.7094 0.136719 5.26587 0.136719 5.95233V7.00998C0.136719 7.69651 0.692995 8.25271 1.37953 8.25271H7.06464V4.75871H8.93238V8.25271H14.6194C15.3058 8.25271 15.8622 7.69643 15.8622 7.00994V5.95229C15.8621 5.26587 15.3058 4.7094 14.6193 4.7094ZM10.4361 1.62799C10.6659 1.39804 10.9723 1.27125 11.2977 1.27125C11.6235 1.27125 11.9294 1.39804 12.1599 1.62799C12.3897 1.85805 12.5162 2.16394 12.5162 2.48952C12.5162 2.81511 12.3897 3.12095 12.1611 3.34956C11.9038 3.59223 10.8964 3.97032 9.65105 4.32249C9.61584 4.20172 9.5683 4.08746 9.50819 3.97918C9.84748 2.80727 10.2038 1.87357 10.4361 1.62799ZM3.83773 1.60183C4.0676 1.37204 4.374 1.24525 4.69935 1.24525C5.0252 1.24525 5.33109 1.37173 5.56025 1.6012C5.79441 1.84899 6.15493 2.79478 6.49662 3.97887C6.44006 4.08037 6.39516 4.18746 6.35983 4.30019C5.10855 3.94759 4.09494 3.56758 3.83769 3.32502C3.36283 2.84985 3.36283 2.07701 3.83773 1.60183Z" fill="black"/>
</svg>
