<svg width="16" height="12" viewBox="0 0 16 12" fill="none" xmlns="http://www.w3.org/2000/svg">
<path d="M15.2552 0.739502H7.96044C7.54983 0.739502 7.21573 1.0893 7.21573 1.49992V2.44695H5.03507C4.66496 2.44695 4.19558 2.67468 3.9665 2.96548L2.50551 4.81995C2.31515 5.06154 1.91866 5.37473 1.63969 5.50398L0.61682 5.9778C0.270888 6.13794 0 6.562 0 6.9432V9.65602C0 10.0563 0.325645 10.382 0.725964 10.382H1.04927C1.29524 11.2264 2.07559 11.8454 2.99839 11.8454C3.92118 11.8454 4.70153 11.2264 4.9475 10.382H9.9066C10.1526 11.2264 10.933 11.8454 11.8557 11.8454C12.7785 11.8454 13.5589 11.2264 13.8048 10.382H15.2739C15.6742 10.382 15.9998 10.0563 15.9998 9.65602V5.77992V3.17292V1.49976C16 1.08914 15.6659 0.739502 15.2552 0.739502ZM2.99845 10.8236C2.44156 10.8236 1.98994 10.3721 1.98994 9.81512C1.98994 9.25817 2.44156 8.80661 2.99845 8.80661C3.55545 8.80661 4.00695 9.25811 4.00695 9.81512C4.00695 10.3721 3.55545 10.8236 2.99845 10.8236ZM7.19082 5.29716C7.19082 5.5625 6.9737 5.98138 6.70843 5.9778L5 6.00001H3.5C3.23472 5.99643 3.31571 5.55405 3.478 5.34421L4.67705 3.79362C4.83935 3.58378 5.18916 3.41205 5.45444 3.41205H6.70843C6.97377 3.41205 7.19076 3.6291 7.19076 3.89438L7.19082 5.29716ZM11.8558 10.8236C11.299 10.8236 10.8474 10.3721 10.8474 9.81512C10.8474 9.25817 11.2989 8.80661 11.8558 8.80661C12.4129 8.80661 12.8644 9.25811 12.8644 9.81512C12.8644 10.3721 12.4129 10.8236 11.8558 10.8236Z" fill="black"/>
</svg>
