<svg width="20" height="15" viewBox="0 0 20 15" fill="none" xmlns="http://www.w3.org/2000/svg">
<path d="M9.72023 7.33756L9.72023 1.36547C9.72023 1.16243 9.88413 1 10.089 1C10.2939 1 10.4578 1.16243 10.4578 1.36547L10.4578 7.33756C11.3128 7.50812 11.9602 8.25801 11.9602 9.15681C11.9602 10.0556 11.3128 10.8055 10.4578 10.976L10.4578 13.6345C10.4578 13.8376 10.2939 14 10.089 14C9.88413 14 9.72023 13.8376 9.72023 13.6345L9.72023 10.976C8.86523 10.8055 8.21783 10.0556 8.21783 9.15681C8.21783 8.26072 8.8625 7.50812 9.72023 7.33756ZM10.089 10.2803C10.7146 10.2803 11.2226 9.77676 11.2226 9.15681C11.2226 8.53686 10.7146 8.03332 10.089 8.03332C9.46346 8.03332 8.95537 8.53686 8.95537 9.15681C8.95537 9.77676 9.46346 10.2803 10.089 10.2803Z" fill="black"/>
<path d="M2.50241 4.27233L2.50241 1.3654C2.50241 1.1624 2.66631 1 2.87118 1C3.07605 1 3.23995 1.1624 3.23995 1.3654L3.23995 4.27233C4.09496 4.44285 4.74236 5.19259 4.74236 6.09119C4.74236 6.9898 4.09496 7.73954 3.23995 7.91005L3.23995 13.6346C3.23995 13.8376 3.07605 14 2.87118 14C2.66631 14 2.50241 13.8376 2.50241 13.6346L2.50241 7.90735C1.6474 7.73683 1 6.98709 1 6.08848C1 5.18988 1.64467 4.44285 2.50241 4.27233ZM2.87118 7.21445C3.49673 7.21445 4.00481 6.71101 4.00481 6.09119C4.00481 5.47137 3.49673 4.96794 2.87118 4.96794C2.24563 4.96794 1.73754 5.47137 1.73754 6.09119C1.73754 6.71101 2.24563 7.21445 2.87118 7.21445Z" fill="black"/>
<path d="M16.76 7.66243L16.76 13.6345C16.76 13.8376 16.9239 14 17.1288 14C17.3337 14 17.4976 13.8376 17.4976 13.6345L17.4976 7.66243C18.3526 7.49188 19 6.74198 19 5.84319C19 4.9444 18.3526 4.1945 17.4976 4.02395L17.4976 1.36547C17.4976 1.16243 17.3337 1 17.1288 1C16.9239 1 16.7601 1.16243 16.7601 1.36547L16.76 4.02395C15.905 4.1945 15.2576 4.9444 15.2576 5.84319C15.2576 6.73928 15.9023 7.49188 16.76 7.66243ZM17.1288 4.7197C17.7544 4.7197 18.2625 5.22324 18.2625 5.84319C18.2625 6.46314 17.7544 6.96668 17.1288 6.96668C16.5033 6.96668 15.9952 6.46314 15.9952 5.84319C15.9952 5.22324 16.5033 4.7197 17.1288 4.7197Z" fill="black"/>
<path d="M9.72023 7.33756L9.72023 1.36547C9.72023 1.16243 9.88413 1 10.089 1C10.2939 1 10.4578 1.16243 10.4578 1.36547L10.4578 7.33756C11.3128 7.50812 11.9602 8.25801 11.9602 9.15681C11.9602 10.0556 11.3128 10.8055 10.4578 10.976L10.4578 13.6345C10.4578 13.8376 10.2939 14 10.089 14C9.88413 14 9.72023 13.8376 9.72023 13.6345L9.72023 10.976C8.86523 10.8055 8.21783 10.0556 8.21783 9.15681C8.21783 8.26072 8.8625 7.50812 9.72023 7.33756ZM10.089 10.2803C10.7146 10.2803 11.2226 9.77676 11.2226 9.15681C11.2226 8.53686 10.7146 8.03332 10.089 8.03332C9.46346 8.03332 8.95537 8.53686 8.95537 9.15681C8.95537 9.77676 9.46346 10.2803 10.089 10.2803Z" stroke="black" stroke-width="0.6"/>
<path d="M2.50241 4.27233L2.50241 1.3654C2.50241 1.1624 2.66631 1 2.87118 1C3.07605 1 3.23995 1.1624 3.23995 1.3654L3.23995 4.27233C4.09496 4.44285 4.74236 5.19259 4.74236 6.09119C4.74236 6.9898 4.09496 7.73954 3.23995 7.91005L3.23995 13.6346C3.23995 13.8376 3.07605 14 2.87118 14C2.66631 14 2.50241 13.8376 2.50241 13.6346L2.50241 7.90735C1.6474 7.73683 1 6.98709 1 6.08848C1 5.18988 1.64467 4.44285 2.50241 4.27233ZM2.87118 7.21445C3.49673 7.21445 4.00481 6.71101 4.00481 6.09119C4.00481 5.47137 3.49673 4.96794 2.87118 4.96794C2.24563 4.96794 1.73754 5.47137 1.73754 6.09119C1.73754 6.71101 2.24563 7.21445 2.87118 7.21445Z" stroke="black" stroke-width="0.6"/>
<path d="M16.76 7.66243L16.76 13.6345C16.76 13.8376 16.9239 14 17.1288 14C17.3337 14 17.4976 13.8376 17.4976 13.6345L17.4976 7.66243C18.3526 7.49188 19 6.74198 19 5.84319C19 4.9444 18.3526 4.1945 17.4976 4.02395L17.4976 1.36547C17.4976 1.16243 17.3337 1 17.1288 1C16.9239 1 16.7601 1.16243 16.7601 1.36547L16.76 4.02395C15.905 4.1945 15.2576 4.9444 15.2576 5.84319C15.2576 6.73928 15.9023 7.49188 16.76 7.66243ZM17.1288 4.7197C17.7544 4.7197 18.2625 5.22324 18.2625 5.84319C18.2625 6.46314 17.7544 6.96668 17.1288 6.96668C16.5033 6.96668 15.9952 6.46314 15.9952 5.84319C15.9952 5.22324 16.5033 4.7197 17.1288 4.7197Z" stroke="black" stroke-width="0.6"/>
</svg>
