<svg width="21" height="21" viewBox="0 0 21 21" fill="none" xmlns="http://www.w3.org/2000/svg">
<mask id="path-1-inside-1" fill="white">
<path fill-rule="evenodd" clip-rule="evenodd" d="M18.41 15.5887C19.4658 13.9992 20.0809 12.0917 20.0809 10.0405C20.0809 4.49527 15.5857 0 10.0405 0C4.49527 0 0 4.49527 0 10.0405C0 15.5857 4.49527 20.0809 10.0405 20.0809C11.5703 20.0809 13.0203 19.7388 14.3179 19.1268L19.3343 21L18.41 15.5887Z"/>
</mask>
<path d="M18.41 15.5887L17.1606 14.7588L16.8312 15.2546L16.9314 15.8413L18.41 15.5887ZM14.3179 19.1268L14.8427 17.7216L14.2502 17.5003L13.6781 17.7701L14.3179 19.1268ZM19.3343 21L18.8095 22.4052L21.2517 23.3172L20.8128 20.7475L19.3343 21ZM18.5809 10.0405C18.5809 11.7874 18.0581 13.4076 17.1606 14.7588L19.6595 16.4187C20.8736 14.5908 21.5809 12.396 21.5809 10.0405H18.5809ZM10.0405 1.5C14.7572 1.5 18.5809 5.3237 18.5809 10.0405H21.5809C21.5809 3.66684 16.4141 -1.5 10.0405 -1.5V1.5ZM1.5 10.0405C1.5 5.3237 5.3237 1.5 10.0405 1.5V-1.5C3.66684 -1.5 -1.5 3.66684 -1.5 10.0405H1.5ZM10.0405 18.5809C5.3237 18.5809 1.5 14.7572 1.5 10.0405H-1.5C-1.5 16.4141 3.66684 21.5809 10.0405 21.5809V18.5809ZM13.6781 17.7701C12.5764 18.2897 11.3445 18.5809 10.0405 18.5809V21.5809C11.7961 21.5809 13.4642 21.1879 14.9577 20.4835L13.6781 17.7701ZM19.859 19.5948L14.8427 17.7216L13.7932 20.532L18.8095 22.4052L19.859 19.5948ZM16.9314 15.8413L17.8557 21.2525L20.8128 20.7475L19.8886 15.3362L16.9314 15.8413Z" fill="black" mask="url(#path-1-inside-1)"/>
<path d="M10 5.62159L11.1485 8.02154L11.3157 8.37087L11.7005 8.41484L14.3669 8.71955L12.4142 10.46L12.1129 10.7286L12.1944 11.1239L12.7196 13.6712L10.3324 12.3833L10 12.204L9.66763 12.3833L7.28045 13.6712L7.80558 11.1239L7.88708 10.7286L7.58577 10.46L5.6331 8.71955L8.29954 8.41484L8.68431 8.37087L8.85148 8.02154L10 5.62159Z" stroke="black" stroke-width="1.4"/>
</svg>
