<svg width="20" height="20" viewBox="0 0 20 20" fill="none" xmlns="http://www.w3.org/2000/svg">
<path d="M15.8356 14.165C14.4605 14.165 13.3418 15.2838 13.3418 16.6588C13.3418 18.0339 14.4605 19.1526 15.8356 19.1526C17.2106 19.1526 18.3293 18.0339 18.3293 16.6588C18.3293 15.2838 17.2106 14.165 15.8356 14.165ZM15.8356 17.6563C15.2854 17.6563 14.8381 17.2089 14.8381 16.6588C14.8381 16.1087 15.2854 15.6613 15.8356 15.6613C16.3857 15.6613 16.8331 16.1087 16.8331 16.6588C16.8331 17.2089 16.3857 17.6563 15.8356 17.6563Z" fill="black"/>
<path d="M19.841 4.52619C19.6994 4.3449 19.4821 4.23916 19.252 4.23916H4.618L3.94467 1.42196C3.86412 1.08531 3.56311 0.847656 3.21697 0.847656H0.748129C0.334924 0.847617 0 1.18254 0 1.59575C0 2.00895 0.334924 2.34388 0.748129 2.34388H2.62646L5.05788 12.5175C5.13843 12.8544 5.43945 13.0918 5.78558 13.0918H17.4315C17.7755 13.0918 18.0752 12.8574 18.1577 12.5237L19.9782 5.16706C20.0333 4.94366 19.9827 4.70748 19.841 4.52619ZM16.8462 11.5956H6.37609L4.97558 5.73542H18.2961L16.8462 11.5956Z" fill="black"/>
<path d="M6.78282 14.165C5.40774 14.165 4.28906 15.2838 4.28906 16.6588C4.28906 18.0339 5.40778 19.1526 6.78282 19.1526C8.15787 19.1526 9.27659 18.0339 9.27659 16.6588C9.27659 15.2838 8.15787 14.165 6.78282 14.165ZM6.78282 17.6563C6.2327 17.6563 5.78532 17.2089 5.78532 16.6588C5.78532 16.1087 6.2327 15.6613 6.78282 15.6613C7.33294 15.6613 7.78033 16.1087 7.78033 16.6588C7.78033 17.2089 7.33294 17.6563 6.78282 17.6563Z" fill="black"/>
</svg>
