<svg width="21" height="18" viewBox="0 0 21 18" fill="none" xmlns="http://www.w3.org/2000/svg">
<path d="M19.0091 1.43351C18.0743 0.520676 16.7827 0.0644531 15.1339 0.0644531C14.6776 0.0644531 14.2119 0.143571 13.7372 0.301729C13.2624 0.460003 12.8207 0.673536 12.4126 0.942173C12.0039 1.21073 11.6527 1.46294 11.3581 1.69839C11.0638 1.93393 10.784 2.18424 10.5191 2.44912C10.2541 2.18424 9.97438 1.93393 9.68006 1.69839C9.38555 1.46294 9.0342 1.21089 8.62562 0.942173C8.21712 0.67342 7.77547 0.460042 7.30077 0.301729C6.8261 0.14361 6.36048 0.0644531 5.90418 0.0644531C4.25543 0.0644531 2.96379 0.520792 2.02907 1.43351C1.09435 2.34615 0.626953 3.61203 0.626953 5.23128C0.626953 5.72443 0.713573 6.23247 0.886464 6.75478C1.05936 7.27736 1.25638 7.72272 1.47714 8.09066C1.69787 8.45856 1.94817 8.81733 2.22787 9.16698C2.50757 9.51659 2.71197 9.75754 2.84063 9.89002C2.9694 10.0225 3.07063 10.1183 3.14422 10.1772L10.0333 16.8235C10.1658 16.956 10.3277 17.0225 10.5191 17.0225C10.7104 17.0225 10.8724 16.956 11.0049 16.8235L17.883 10.1991C19.5685 8.51385 20.4112 6.85779 20.4112 5.23112C20.4113 3.61176 19.9439 2.34599 19.0091 1.43351ZM16.9225 9.16145L10.5191 15.3329L4.10481 9.15032C2.72841 7.77426 2.04032 6.46766 2.04032 5.23112C2.04032 4.63503 2.11944 4.1087 2.2776 3.65248C2.43587 3.19618 2.63827 2.83358 2.88483 2.56494C3.13142 2.29622 3.4313 2.07743 3.78459 1.90802C4.13807 1.73877 4.48396 1.62465 4.82248 1.5658C5.16099 1.50702 5.52158 1.47759 5.90437 1.47759C6.28705 1.47759 6.6993 1.57133 7.14091 1.75907C7.58243 1.94673 7.98908 2.18227 8.36074 2.4656C8.73247 2.74912 9.05079 3.01405 9.31587 3.26053C9.5808 3.50724 9.80152 3.73342 9.9782 3.93952C10.1106 4.10151 10.2911 4.18248 10.5192 4.18248C10.7473 4.18248 10.9276 4.10151 11.0601 3.93952C11.2368 3.73342 11.4577 3.50712 11.7226 3.26053C11.9875 3.01405 12.3059 2.74924 12.6775 2.4656C13.0492 2.18227 13.4559 1.94673 13.8976 1.75907C14.3391 1.57136 14.7514 1.47759 15.1342 1.47759C15.5169 1.47759 15.8773 1.50702 16.216 1.5658C16.5546 1.62461 16.9005 1.73877 17.2539 1.90802C17.6072 2.07739 17.9071 2.29634 18.1536 2.56494C18.4002 2.83358 18.6027 3.19618 18.7609 3.65248C18.9189 4.1087 18.9981 4.63503 18.9981 5.23112C18.998 6.46766 18.3063 7.7779 16.9225 9.16145Z" fill="black"/>
</svg>
